<?xml version="1.0" encoding="UTF-8"?>
<svg width="96" height="96" viewBox="0 0 96 96" fill="none" xmlns="http://www.w3.org/2000/svg">
  <circle cx="48" cy="48" r="48" fill="#E2E8F0"/>
  <path d="M48 52C56.2843 52 63 45.2843 63 37C63 28.7157 56.2843 22 48 22C39.7157 22 33 28.7157 33 37C33 45.2843 39.7157 52 48 52Z" fill="#94A3B8"/>
  <path d="M24 74C24 63.5066 32.5066 55 43 55H53C63.4934 55 72 63.5066 72 74V74C72 75.1046 71.1046 76 70 76H26C24.8954 76 24 75.1046 24 74V74Z" fill="#94A3B8"/>
</svg>
